<svg viewBox="0 0 402 274" preserveAspectRatio="xMidYMid meet" fill="none" xmlns="http://www.w3.org/2000/svg">
<g clip-path="url(#clip0_14_734)">
<path d="M237.231 13.1133L215.668 34.059L186.721 25.812L179.317 -3.36267L200.88 -24.3084L229.827 -16.0615L237.231 13.1133ZM213.964 40.6475L220.414 66.1396L195.12 58.9526L188.67 33.4605L213.964 40.6475ZM202.603 -30.8607L196.153 -56.3528L221.447 -49.1658L227.897 -23.6737L202.603 -30.8607ZM179.178 23.6873L153.884 16.5004L147.416 -9.01025L172.71 -1.82328L179.178 23.6873ZM130.44 71.031L105.146 63.844L98.6962 38.3519L123.99 45.5389L130.44 71.031ZM130.599 44.0166L152.161 23.0708L181.109 31.3178L188.512 60.4925L166.95 81.4382L138.002 73.1913L130.599 44.0166ZM165.228 87.9907L171.678 113.483L146.365 106.314L139.915 80.8217L165.228 87.9907ZM171.854 86.4869L193.417 65.5412L222.364 73.7881L229.768 102.963L208.205 123.909L179.258 115.662L171.854 86.4869ZM206.483 130.461L212.934 155.953L187.639 148.766L181.189 123.274L206.483 130.461ZM229.908 75.9131L255.202 83.1001L261.67 108.611L236.376 101.424L229.908 75.9131ZM278.646 28.5694L303.94 35.7564L310.39 61.2485L285.096 54.0615L278.646 28.5694ZM278.487 55.5838L256.925 76.5296L227.977 68.2826L220.574 39.1079L242.136 18.1622L271.084 26.4091L278.487 55.5838ZM243.858 11.6097L237.408 -13.8824L262.721 -6.71338L269.171 18.7787L243.858 11.6097ZM264.425 -13.3021L235.478 -21.5491L228.074 -50.7238L249.637 -71.6695L278.611 -63.3948L286.015 -34.2201L264.452 -13.2744L264.425 -13.3021ZM186.845 -93.1669L208.408 -114.113L237.355 -105.866L244.759 -76.6909L223.196 -55.7452L194.249 -63.9922L186.845 -93.1669ZM138.079 -45.7956L159.642 -66.7413L188.589 -58.4944L195.993 -29.3197L174.43 -8.37395L145.483 -16.6209L138.079 -45.7956ZM89.3412 1.54807L110.904 -19.3977L139.851 -11.1507L147.255 18.024L125.692 38.9697L96.7448 30.7228L89.3412 1.54807ZM40.5845 48.9101L62.147 27.9644L91.0947 36.2113L98.4983 65.3861L76.9357 86.3318L47.9881 78.0848L40.5845 48.9101ZM81.8393 91.3798L103.402 70.434L132.349 78.681L139.753 107.856L118.191 128.801L89.2429 120.554L81.8393 91.3798ZM123.094 133.849L144.657 112.904L173.604 121.151L181.008 150.325L159.445 171.271L130.471 162.996L123.094 133.849ZM222.237 192.768L200.674 213.714L171.727 205.467L164.323 176.292L185.886 155.347L214.833 163.594L222.237 192.768ZM271.003 145.397L249.441 166.343L220.493 158.096L213.089 128.921L234.652 107.975L263.6 116.222L271.003 145.397ZM319.741 98.0535L298.178 118.999L269.231 110.752L261.827 81.5775L283.39 60.6318L312.337 68.8788L319.741 98.0535ZM368.498 50.6914L346.935 71.6371L317.987 63.3902L310.584 34.2155L332.146 13.2698L361.094 21.5167L368.498 50.6914ZM327.243 8.22178L305.68 29.1675L276.733 20.9205L269.329 -8.25415L290.892 -29.1999L319.839 -20.953L327.243 8.22178Z" fill="#4B4B4B" fill-opacity="0.3"/>
</g>
<defs>
<clipPath id="clip0_14_734">
<rect width="363" height="281" fill="white" transform="translate(-27 71.9287) rotate(-44.1687)"/>
</clipPath>
</defs>
</svg>
